# xmcd CD database file
#
# Track frame offsets:
#	150
#	18915
#	31172
#	46395
#	65372
#	77977
#	95135
#	108655
#	123997
#	142617
#	162265
#	176087
#	192145
#	210225
#	227935
#
# Disc length: 3240 seconds
#
# Revision: 0
# Processed by: cddbd v1.5.2PL0 Copyright (c) Steve Scherf et al.
# Submitted via: jetAudio 7
#
DISCID=c30ca60f
DTITLE=ÉRICK E NANDO - NA DIREÇÃO CERTA
DYEAR=1900
DGENRE=Country
TTITLE0=PORQUÊ NÃO VEM ME AMAR
TTITLE1=CADÊ VOCÊ
TTITLE2=VEM NEMIM GOIÁS
TTITLE3=SABOR DE PAIXÃO
TTITLE4=TÁ DOMINADO
TTITLE5=COMO É QUE VAI FICAR
TTITLE6=REBOLA, REBOLA
TTITLE7=ELA CHUPOU
TTITLE8=TRISTEZA E SOLIDÃO
TTITLE9=DJANGO
TTITLE10=DÁ UM TOQUE NELA
TTITLE11=LOUCO PRA TE AMAR
TTITLE12=ATÉ O DIA CLAREAR
TTITLE13=PRAQUÊ RECOMEÇAR
TTITLE14=ELA VAI TER QUE SER MINHA
EXTD=
EXTT0=
EXTT1=
EXTT2=
EXTT3=
EXTT4=
EXTT5=
EXTT6=
EXTT7=
EXTT8=
EXTT9=
EXTT10=
EXTT11=
EXTT12=
EXTT13=
EXTT14=
PLAYORDER=
